<svg width="15" height="15" viewBox="0 0 15 15" fill="none" xmlns="http://www.w3.org/2000/svg">
<path d="M13.9951 3.73532C13.3244 2.58629 12.4146 1.67654 11.2655 1.00587C10.1164 0.335246 8.86152 0 7.50063 0C6.13985 0 4.88487 0.335246 3.7358 1.00587C2.58655 1.67643 1.67675 2.58619 1.00609 3.73532C0.335261 4.88451 0 6.13933 0 7.50009C0 9.01709 0.413389 10.3942 1.24027 11.631C2.06712 12.8682 3.15117 13.7829 4.49242 14.3753C4.46635 13.6787 4.5087 13.1026 4.61929 12.6468L5.58621 8.56452C5.42339 8.24542 5.34201 7.8486 5.34201 7.37312C5.34201 6.81985 5.48188 6.3576 5.7619 5.9864C6.04192 5.61527 6.38368 5.42974 6.78739 5.42974C7.11283 5.42974 7.36346 5.53715 7.53932 5.75196C7.71521 5.96687 7.80288 6.23702 7.80288 6.56262C7.80288 6.7643 7.76529 7.01016 7.69038 7.29988C7.61553 7.58964 7.51794 7.92492 7.3975 8.30583C7.27706 8.6866 7.19072 8.99116 7.13869 9.21883C7.0476 9.61589 7.12241 9.95606 7.36333 10.2394C7.60421 10.5226 7.92336 10.6644 8.32054 10.6644C9.01716 10.6644 9.58841 10.277 10.0345 9.50236C10.4805 8.72744 10.7034 7.78666 10.7034 6.67995C10.7034 5.82694 10.4283 5.13353 9.87804 4.59982C9.32782 4.06591 8.56122 3.79884 7.57801 3.79884C6.47788 3.79884 5.58745 4.15207 4.90707 4.85845C4.22666 5.56492 3.88648 6.40972 3.88648 7.39275C3.88648 7.97875 4.05252 8.47039 4.38453 8.86741C4.49519 8.99759 4.53104 9.13756 4.49194 9.28741C4.4789 9.32651 4.45291 9.42413 4.41381 9.58028C4.37488 9.73643 4.34871 9.83757 4.33578 9.88303C4.28375 10.0914 4.15996 10.1565 3.96464 10.0783C3.46337 9.87013 3.08241 9.50869 2.82206 8.99434C2.56161 8.48 2.43135 7.88418 2.43135 7.20725C2.43135 6.77103 2.50137 6.33485 2.64138 5.8987C2.78125 5.46238 2.99946 5.0409 3.29562 4.63396C3.59196 4.22692 3.94678 3.86718 4.36024 3.55482C4.77353 3.24235 5.27654 2.99173 5.86904 2.80292C6.46153 2.6141 7.09952 2.5197 7.78322 2.5197C8.70789 2.5197 9.53785 2.72476 10.2735 3.13491C11.0093 3.5451 11.5708 4.07563 11.9582 4.72672C12.3457 5.37785 12.5393 6.07451 12.5393 6.8167C12.5393 7.79322 12.37 8.6721 12.0316 9.45345C11.6931 10.2347 11.2145 10.8483 10.5958 11.2941C9.97727 11.7402 9.27419 11.9632 8.48613 11.9632C8.08909 11.9632 7.71798 11.8704 7.37277 11.685C7.02779 11.4993 6.79009 11.2797 6.65993 11.0257C6.36692 12.1779 6.19109 12.8649 6.13246 13.0863C6.00877 13.5483 5.75489 14.0823 5.37068 14.6877C6.06737 14.8961 6.77699 15 7.49971 15C8.86049 15 10.1155 14.6648 11.2646 13.994C12.4138 13.3235 13.3236 12.4138 13.9941 11.2648C14.6647 10.1155 15 8.86057 15 7.49995C15.0003 6.13933 14.6656 4.88434 13.9951 3.73532Z" fill="black" fill-opacity="0.7"/>
</svg>
