<svg width="15" height="15" viewBox="0 0 15 15" fill="none" xmlns="http://www.w3.org/2000/svg">
<path d="M7.5 0C3.36452 0 0 3.36452 0 7.5C0 11.6352 3.36452 15 7.5 15C11.6352 15 15 11.6352 15 7.5C15 3.36452 11.6358 0 7.5 0ZM10.8458 5.78345C10.8491 5.85777 10.8509 5.93269 10.8509 6.00761C10.8509 8.28879 9.11504 10.9183 5.93904 10.9183C4.96415 10.9183 4.05663 10.6334 3.29292 10.1434C3.42796 10.1594 3.56542 10.1676 3.70468 10.1676C4.51372 10.1676 5.25779 9.89144 5.84871 9.42862C5.09345 9.41473 4.45571 8.91565 4.23608 8.22958C4.34121 8.24952 4.44967 8.26069 4.56054 8.26069C4.71794 8.26069 4.8708 8.24015 5.01551 8.20058C4.22581 8.04227 3.63097 7.34472 3.63097 6.50789C3.63097 6.50064 3.63097 6.49309 3.63127 6.48614C3.86389 6.61514 4.13004 6.69308 4.41281 6.70184C3.94999 6.39279 3.64517 5.86411 3.64517 5.26535C3.64517 4.94874 3.73006 4.65208 3.8787 4.3971C4.72972 5.44177 6.00217 6.12876 7.43656 6.20126C7.40695 6.07468 7.39215 5.94327 7.39215 5.80762C7.39215 4.85449 8.16493 4.08141 9.11806 4.08141C9.61472 4.08141 10.0627 4.29107 10.3781 4.6264C10.7718 4.54906 11.1403 4.40586 11.4748 4.20738C11.3449 4.61069 11.0721 4.94874 10.7147 5.16263C11.0642 5.12094 11.3977 5.0285 11.7062 4.89104C11.476 5.23665 11.1832 5.54086 10.8458 5.78345Z" fill="black" fill-opacity="0.7"/>
</svg>
