<svg width="15" height="15" viewBox="0 0 15 15" fill="none" xmlns="http://www.w3.org/2000/svg">
<path d="M7.5 0C3.36452 0 0 3.36452 0 7.5C0 11.6352 3.36452 15 7.5 15C11.6352 15 15 11.6352 15 7.5C15 3.36452 11.6358 0 7.5 0ZM9.36518 7.76404H8.14499C8.14499 9.71351 8.14499 12.1131 8.14499 12.1131H6.3369C6.3369 12.1131 6.3369 9.73677 6.3369 7.76404H5.47742V6.22694H6.3369V5.23272C6.3369 4.52066 6.67526 3.40802 8.1616 3.40802L9.50143 3.41316V4.90524C9.50143 4.90524 8.68726 4.90524 8.52896 4.90524C8.37066 4.90524 8.14559 4.98439 8.14559 5.32395V6.22724H9.52318L9.36518 7.76404Z" fill="black" fill-opacity="0.7"/>
</svg>
