<svg width="15" height="15" viewBox="0 0 15 15" fill="none" xmlns="http://www.w3.org/2000/svg">
<path d="M7.49969 9.00143C8.32715 9.00143 9.00174 8.32805 9.00174 7.49998C9.00174 7.17311 8.8948 6.87131 8.71776 6.62479C8.44497 6.24656 8.00148 5.99854 7.50059 5.99854C6.9994 5.99854 6.55622 6.24626 6.28282 6.62449C6.10518 6.87101 5.99914 7.17281 5.99884 7.49968C5.99793 8.32775 6.67193 9.00143 7.49969 9.00143Z" fill="black" fill-opacity="0.7"/>
<path d="M10.7784 5.66315V4.40459V4.21729L10.5902 4.21789L9.33228 4.22182L9.33711 5.66798L10.7784 5.66315Z" fill="black" fill-opacity="0.7"/>
<path d="M7.5 0C3.36452 0 0 3.36452 0 7.5C0 11.6352 3.36452 15 7.5 15C11.6352 15 15 11.6352 15 7.5C15 3.36452 11.6358 0 7.5 0ZM11.7654 6.62481V10.1171C11.7654 11.0267 11.0258 11.766 10.1168 11.766H4.88319C3.97386 11.766 3.23461 11.0267 3.23461 10.1171V6.62481V4.88349C3.23461 3.97416 3.97386 3.23492 4.88319 3.23492H10.1165C11.0258 3.23492 11.7654 3.97416 11.7654 4.88349V6.62481Z" fill="black" fill-opacity="0.7"/>
<path d="M9.83311 7.49995C9.83311 8.786 8.78663 9.83309 7.49997 9.83309C6.21332 9.83309 5.16714 8.786 5.16714 7.49995C5.16714 7.19059 5.22877 6.89484 5.33873 6.62476H4.06537V10.1171C4.06537 10.5684 4.43182 10.9339 4.88286 10.9339H10.1162C10.5666 10.9339 10.9337 10.5684 10.9337 10.1171V6.62476H9.65971C9.77058 6.89484 9.83311 7.19059 9.83311 7.49995Z" fill="black" fill-opacity="0.7"/>
</svg>
